<?xml version="1.0" encoding="utf-8"?>
<!-- Generator: Adobe Illustrator 16.0.4, SVG Export Plug-In . SVG Version: 6.00 Build 0)  -->
<!DOCTYPE svg PUBLIC "-//W3C//DTD SVG 1.1//EN" "http://www.w3.org/Graphics/SVG/1.1/DTD/svg11.dtd">
<svg version="1.1" id="Laag_1" xmlns="http://www.w3.org/2000/svg" xmlns:xlink="http://www.w3.org/1999/xlink" x="0px" y="0px"
	 width="578.921px" height="586.418px" viewBox="10.92 838.158 578.921 586.418"
	 enable-background="new 10.92 838.158 578.921 586.418" xml:space="preserve">
<g id="Laag_4">
	<ellipse fill="#7D4E24" stroke="#B17F4A" stroke-miterlimit="10" cx="304.465" cy="1134.475" rx="283.864" ry="283.864"/>
</g>
<g id="Laag_3">
	<g>
		<path fill="#B17F4A" d="M589.841,1134.476c0,0,0,1.742-0.252,5.208c-0.252,3.465,0,8.442-0.735,14.889
			c-0.735,13.146-3.234,32.257-9.682,55.841c-0.734,2.981-1.742,5.964-2.478,9.177c-0.987,2.982-1.995,6.195-3.234,9.43
			c-0.986,3.234-2.226,6.447-3.465,9.681c-1.239,3.234-2.478,6.699-4.221,9.934c-5.713,13.65-13.146,27.784-22.324,42.19
			c-18.354,28.791-44.416,58.318-79.15,82.637c-17.367,12.159-36.982,22.827-58.318,31.27
			c-21.337,8.442-44.416,14.386-68.735,17.619c-2.981,0.504-6.194,0.735-9.177,0.987s-6.195,0.504-9.177,0.735
			c-2.982,0-6.195,0.252-9.43,0.252l-4.725,0.252h-0.735h-0.504h-1.239h-2.227c-2.981,0-6.194,0-9.177-0.252
			c-3.233,0-6.447-0.504-9.429-0.504c-6.447-0.252-12.663-1.239-19.11-1.995c-12.664-1.995-25.558-4.222-38.222-7.938
			c-6.446-1.491-12.663-3.969-18.858-5.964c-3.233-1.239-6.194-2.479-9.429-3.465l-4.726-1.743l-4.473-1.995
			c-24.57-10.669-48.133-25.054-69.47-42.442c-10.668-8.694-20.602-18.606-30.283-28.792c-9.429-10.416-18.123-21.588-26.062-33.013
			c-7.938-11.655-14.889-24.066-21.084-36.981c-6.195-12.895-11.425-26.293-15.625-39.943c-4.199-13.65-7.455-27.741-9.702-41.896
			c-2.226-14.154-3.233-28.54-3.465-42.925l0.252-10.669c0-3.465,0.252-7.203,0.504-10.668c0.252-3.717,0.504-7.435,0.735-10.92
			l1.239-10.669c2.226-14.385,4.956-28.539,8.925-42.189c4.222-13.902,8.926-27.301,15.142-40.447
			c6.195-12.895,12.895-25.558,20.602-37.717c7.938-11.907,16.38-23.331,25.81-34c9.429-10.668,19.362-20.602,30.03-29.778
			c21.589-18.606,45.172-33.496,70.226-44.668l4.726-1.995l4.725-1.995c3.234-1.239,6.195-2.479,9.43-3.717
			c6.447-2.227,12.663-4.474,19.362-6.195c12.895-3.97,26.062-6.447,38.956-8.19c6.447-0.735,12.895-1.743,19.594-1.995
			c3.233-0.252,6.447-0.504,9.681-0.504c3.234,0,6.447,0,9.682-0.252h2.478h1.239h0.504c0.252,0,0.987,0,0.987,0l4.473,0.252
			c2.982,0,6.195,0.252,9.178,0.252c3.233,0.252,6.447,0.504,9.681,0.735c3.234,0.252,6.447,0.504,9.43,0.986
			c24.822,3.234,48.385,9.43,69.974,18.124c21.841,8.694,41.434,20.098,59.054,32.509c34.734,25.306,60.544,55.84,78.415,85.367
			c8.926,14.637,16.129,29.274,21.841,42.925c1.491,3.465,2.73,6.951,3.969,10.164c1.239,3.213,2.479,6.699,3.466,9.934
			c0.986,3.233,1.995,6.447,2.981,9.429c0.735,3.234,1.743,6.195,2.479,9.178c1.743,5.964,2.478,11.655,3.717,17.115
			c0.987,5.46,1.743,10.416,2.479,15.142c0.504,4.725,0.986,9.177,1.491,13.146c0.504,3.97,0.504,7.687,0.734,10.921
			c0.504,6.447,0.252,11.655,0.504,14.889C589.841,1132.753,589.841,1134.476,589.841,1134.476L589.841,1134.476z M587.342,1134.476
			c0,0,0-1.743-0.252-5.209c-0.252-3.465-0.252-8.441-0.735-14.889c-0.987-12.895-3.234-32.005-10.164-55.085
			c-0.987-2.981-1.743-5.964-2.73-8.925c-0.986-2.982-2.226-5.964-3.233-9.177c-0.987-3.234-2.479-6.195-3.718-9.43
			c-1.491-3.234-2.729-6.447-4.221-9.682c-6.195-13.146-13.902-26.796-23.584-40.446c-19.11-27.301-46.159-54.602-80.642-75.938
			c-17.115-10.668-36.478-19.845-56.827-27.048c-2.479-0.987-5.208-1.743-7.687-2.479c-2.729-0.735-5.208-1.743-7.938-2.478
			c-2.729-0.735-5.46-1.491-7.938-1.995l-3.97-0.987l-4.221-0.735c-2.73-0.504-5.46-1.239-8.19-1.743
			c-2.729-0.504-5.46-0.986-8.442-1.49c-5.46-0.987-11.172-1.491-16.863-2.227c-2.981-0.504-5.712-0.504-8.442-0.735
			c-2.729-0.252-5.712-0.252-8.441-0.504c-2.982,0-5.965,0-9.178,0h-4.473l-4.222,0.252c-2.981,0-5.964,0.252-8.925,0.252
			c-2.981,0.252-5.964,0.505-8.925,0.735c-5.965,0.252-11.907,1.239-17.872,1.995c-11.907,1.995-23.814,4.473-35.49,7.938
			c-5.965,1.491-11.655,3.717-17.62,5.712c-2.981,0.987-5.712,2.226-8.693,3.465l-4.222,1.743l-4.725,1.239
			c-45.655,20.098-87.342,53.593-117.12,97.274c-7.435,10.92-13.902,22.323-19.846,34.252
			c-5.943,11.928-10.668,24.318-14.637,36.981c-3.97,12.663-6.951,25.81-9.178,38.956l-1.491,9.934
			c-0.504,3.233-0.734,6.699-0.986,9.933c-0.252,3.234-0.505,6.447-0.735,10.164l-0.252,10.165c0,13.397,0.735,26.796,2.729,40.194
			c1.995,13.398,4.726,26.545,8.442,39.46c3.97,12.895,8.442,25.558,14.154,37.717c5.713,12.159,12.159,23.814,19.362,34.987
			c29.023,44.626,70.961,79.864,117.352,100.718l4.221,1.995l4.474,1.743c2.981,1.239,5.964,2.479,8.925,3.466
			c5.964,1.994,11.907,4.221,17.871,5.964c11.907,3.717,24.066,6.195,36.227,8.19c6.194,0.734,12.159,1.742,18.123,2.226
			c2.982,0.252,5.964,0.504,8.925,0.735c2.982,0,6.195,0.252,9.178,0.252l4.473,0.252h4.474c2.981,0,5.964,0,8.925,0
			c2.982-0.252,5.964-0.252,8.925-0.504c2.982-0.252,5.965-0.252,8.694-0.735c5.713-0.735,11.655-1.239,17.367-2.226
			c2.73-0.505,5.713-0.987,8.442-1.491c2.73-0.504,5.712-1.239,8.442-1.743l4.221-0.987l4.222-0.987
			c2.729-0.734,5.46-1.49,8.19-2.226c2.729-0.735,5.46-1.743,7.938-2.479c2.73-0.986,5.461-1.742,7.938-2.729
			c20.854-7.435,40.195-17.115,57.562-28.288c34.734-22.323,61.531-50.611,80.39-78.416c19.11-28.035,30.031-55.84,36.479-79.15
			c6.699-23.332,8.441-42.673,9.429-55.589c0.504-6.446,0.504-11.424,0.504-14.889
			C587.342,1136.218,587.342,1134.476,587.342,1134.476L587.342,1134.476z"/>
	</g>
	<g>
		<path fill="#B17F4A" d="M568.988,1142.917c0,0,0,1.491-0.252,4.726c-0.252,2.982,0,7.434-0.735,13.398
			c-0.735,11.907-2.982,29.022-8.694,50.38c-0.734,2.73-1.491,5.46-2.226,8.19c-0.987,2.729-1.743,5.46-2.73,8.442
			c-0.986,2.981-1.995,5.712-3.234,8.694c-1.238,2.981-2.226,5.964-3.717,8.925c-5.208,12.159-11.655,25.054-20.098,37.969
			c-16.38,25.81-39.942,52.606-71.212,74.447c-15.625,10.92-33.244,20.602-52.354,28.287c-19.11,7.687-39.943,13.146-62.036,15.877
			c-2.729,0.504-5.46,0.734-8.189,0.986c-2.73,0.252-5.46,0.504-8.442,0.735c-2.73,0-5.712,0.252-8.442,0.252l-4.221,0.252h-0.735
			h-0.504h-0.987h-1.995c-2.729,0-5.46,0-8.442-0.252c-2.729,0-5.712-0.252-8.693-0.504c-5.712-0.252-11.425-0.987-17.367-1.743
			c-11.425-1.743-23.08-3.717-34.483-7.203c-5.712-1.491-11.424-3.465-17.115-5.208c-2.73-0.987-5.712-2.227-8.442-3.234
			l-4.221-1.743l-4.222-1.743c-44.416-19.11-84.862-51.871-113.402-94.04c-7.203-10.416-13.398-21.841-19.11-33.243
			c-5.712-11.655-10.164-23.584-14.154-35.975c-3.99-12.39-6.657-25.053-8.904-37.969c-1.995-12.895-2.982-25.81-3.234-38.956
			l0.252-9.681c0-2.982,0.252-6.447,0.504-9.682s0.252-6.699,0.735-9.934l1.239-9.681c1.995-12.895,4.473-25.81,8.19-38.221
			c3.717-12.411,8.189-24.823,13.65-36.479c5.46-11.655,11.655-23.079,18.606-33.999c7.203-10.669,14.637-21.085,23.331-30.767
			c8.442-9.681,17.367-18.606,27.301-26.796c19.362-16.129,40.951-29.527,63.274-39.712l4.221-1.995l4.222-1.743
			c2.981-0.987,5.712-2.227,8.694-3.234c5.712-1.995,11.424-3.969,17.367-5.46c11.655-3.465,23.583-5.712,35.238-7.435
			c5.965-0.734,11.655-1.49,17.62-1.743c2.981-0.252,5.964-0.504,8.693-0.504c2.982,0,5.713,0,8.694-0.252h2.227h0.986h0.505h0.734
			l4.222,0.252c2.729,0,5.46,0.252,8.189,0.252c2.982,0.252,5.713,0.505,8.694,0.735c2.982,0.252,5.712,0.504,8.694,0.987
			c22.323,2.981,43.681,8.694,63.274,16.632c19.594,7.938,37.213,18.124,53.11,29.527c31.521,22.827,54.602,50.611,70.729,76.925
			c8.19,13.398,14.638,26.292,19.363,38.704c1.49,2.981,2.478,6.194,3.465,9.177c0.986,2.982,2.226,5.964,2.981,8.926
			c0.987,2.981,1.743,5.712,2.73,8.693c0.735,2.73,1.491,5.461,2.226,8.19c1.491,5.208,2.227,10.416,3.466,15.394
			c0.986,4.725,1.491,9.429,2.226,13.65c0.504,4.221,0.987,8.19,1.239,11.907c0.504,3.717,0.504,6.951,0.735,9.934
			c0.504,5.964,0.252,10.416,0.504,13.397C568.736,1141.427,568.988,1142.917,568.988,1142.917L568.988,1142.917z M566.509,1142.917
			c0,0,0-1.49-0.252-4.473s0-7.435-0.734-13.398c-0.987-11.655-2.982-28.792-9.43-49.624c-0.735-2.479-1.743-5.208-2.478-7.938
			c-0.987-2.729-1.995-5.46-2.982-8.19c-0.987-2.729-2.227-5.712-3.465-8.441c-1.239-2.982-2.479-5.965-3.97-8.694
			c-5.46-11.907-12.663-24.066-21.336-36.227c-17.367-24.318-41.687-48.889-72.704-67.747
			c-15.394-9.682-32.761-17.619-50.863-24.066c-4.473-1.491-9.177-2.982-13.902-4.474c-2.478-0.504-4.725-1.239-7.203-1.743
			l-3.717-0.986l-3.717-0.735c-2.479-0.504-4.956-0.987-7.435-1.491s-4.956-0.735-7.435-1.239
			c-4.956-0.986-10.164-1.238-15.141-1.995c-2.479-0.252-4.956-0.504-7.687-0.504c-2.479-0.252-4.956-0.252-7.687-0.504
			c-2.729,0-5.46,0-8.189,0h-4.222h-3.717c-2.73,0-5.208,0.252-7.938,0.252c-2.729,0-5.208,0.504-7.938,0.504
			c-5.208,0.252-10.669,1.239-15.877,1.995c-10.668,1.743-21.336,3.97-31.753,6.951c-5.208,1.491-10.416,3.234-15.624,4.956
			c-2.478,0.987-5.208,1.995-7.687,2.982l-3.969,1.491l-3.234,1.743c-40.95,17.871-78.163,47.881-104.96,86.857
			c-6.699,9.682-12.663,20.098-17.872,30.514c-5.208,10.669-9.429,21.841-13.146,33.244c-3.718,11.425-6.195,23.08-8.19,34.987
			l-1.239,8.925c-0.504,2.982-0.504,5.964-0.987,8.925c-0.252,2.982-0.504,5.965-0.504,8.926l-0.252,9.177
			c0,12.159,0.735,24.067,2.227,35.975c1.743,11.907,4.221,23.814,7.434,35.238c3.466,11.425,7.435,22.828,12.664,33.748
			c5.229,10.92,10.668,21.336,17.367,31.27c26.062,39.943,63.526,71.465,104.96,90.323l3.97,1.743l3.969,1.491
			c2.73,0.987,5.208,2.226,7.938,3.233c5.46,1.743,10.668,3.97,16.128,5.209c10.669,3.233,21.589,5.46,32.509,7.434
			c5.46,0.735,10.921,1.491,16.381,1.995c2.729,0.252,5.208,0.504,8.189,0.735c2.73,0,5.46,0.252,8.19,0.252h3.969h3.97
			c2.729,0,5.46,0,7.938,0c2.73-0.252,5.209-0.252,7.938-0.504c2.73-0.252,5.208-0.252,7.938-0.735
			c5.208-0.504,10.416-0.987,15.624-1.995c2.479-0.504,5.208-0.734,7.687-1.239c2.479-0.504,4.956-0.986,7.435-1.743l3.717-0.734
			l3.717-0.987c2.479-0.735,4.956-1.239,7.435-1.995c4.725-1.491,9.681-2.981,14.385-4.725
			c18.606-6.699,35.975-15.394,51.619-25.306c31.271-20.098,55.337-45.173,72.2-70.478c17.115-25.054,27.049-50.129,33.013-71.213
			c5.964-21.085,7.687-38.221,8.442-49.876c0.504-5.713,0.504-10.417,0.504-13.398
			C566.257,1144.408,566.509,1142.917,566.509,1142.917L566.509,1142.917z"/>
	</g>
	<g>
		<path fill="#B17F4A" d="M555.085,1146.887c0,0,0,1.491-0.252,3.969c-0.252,2.73,0,6.699-0.504,11.907
			c-0.735,10.416-2.73,25.558-8.19,44.164c-2.73,9.43-6.447,19.362-11.172,30.031c-4.957,10.668-10.921,21.84-18.607,32.761
			c-15.141,22.323-36.478,44.92-64.765,63.274c-14.154,9.177-29.527,17.367-46.643,23.583
			c-17.115,6.195-35.491,10.921-54.602,13.146c-4.725,0.504-9.681,0.987-14.637,1.239c-2.479,0-4.956,0.252-7.435,0.252
			l-3.717,0.252h-3.717c-2.479,0-4.957,0-7.203,0c-2.479,0-4.957-0.252-7.435-0.504c-5.208-0.252-10.164-0.735-15.142-1.491
			c-2.478-0.252-4.956-0.735-7.686-0.987c-2.479-0.504-4.956-0.734-7.687-1.238c-4.956-0.987-10.164-1.995-15.142-3.466
			c-10.164-2.478-20.097-5.964-30.03-9.681c-39.46-15.877-76.19-43.177-102.734-79.403c-6.699-9.177-12.663-18.606-17.872-28.791
			c-5.208-10.165-9.681-20.602-13.397-31.522c-3.466-10.92-6.447-22.093-8.442-33.243c-0.735-5.713-1.743-11.425-2.227-17.116
			c-0.252-2.981-0.504-5.712-0.504-8.693l-0.252-8.926c0-10.668,0.735-23.079,2.227-34.252c1.742-11.424,4.221-22.575,7.686-33.747
			c3.465-10.921,7.938-21.589,12.895-32.005c5.208-10.165,10.92-20.098,17.367-29.527c25.81-37.213,62.771-66.004,102.986-82.637
			c10.165-3.969,20.35-7.687,30.514-10.164c5.209-1.491,10.417-2.479,15.625-3.717c2.478-0.505,5.208-0.987,7.686-1.239
			c2.479-0.504,5.209-0.987,7.687-1.239c5.208-0.504,10.416-1.239,15.394-1.491c2.478-0.252,5.208-0.504,7.686-0.504
			c2.479,0,5.209,0,7.687,0h1.995h0.987h0.504h0.734l3.718,0.252c2.478,0,4.725,0.252,7.203,0.252
			c4.956,0.504,10.164,0.735,15.141,1.491c19.594,2.479,38.452,7.435,55.841,13.902c17.367,6.699,33.244,15.394,47.398,24.822
			c28.287,19.362,49.624,42.925,64.514,65.753c7.434,11.424,13.397,22.827,17.871,33.748c4.725,10.668,8.19,21.084,10.668,30.514
			c2.479,9.429,4.222,17.871,5.208,25.306c0.987,7.434,1.743,13.902,1.995,19.11c0.504,5.208,0.252,9.177,0.504,11.907
			C555.085,1145.396,555.085,1146.635,555.085,1146.887L555.085,1146.887z M552.607,1146.635c0,0,0-1.491-0.252-3.97
			c-0.252-2.729,0-6.699-0.734-11.655c-0.735-10.164-2.982-25.054-8.926-43.177c-5.712-18.123-15.876-39.208-31.753-60.04
			c-16.128-20.854-38.221-41.183-66.004-56.576c-13.902-7.938-29.023-14.385-45.173-19.593c-16.128-4.956-33.495-8.442-51.367-9.934
			c-4.473-0.504-8.693-0.504-13.146-0.735c-2.479,0-4.726,0-7.203,0h-3.718h-3.233c-2.227,0-4.726,0.252-6.951,0.252
			c-2.227,0-4.726,0.253-6.951,0.505c-4.726,0.252-9.178,0.986-13.902,1.49c-18.606,2.73-37.213,7.687-55.337,15.142
			c-35.974,14.638-69.722,39.46-94.04,72.452c-5.964,8.19-11.655,16.863-16.38,26.062c-4.726,9.177-8.926,18.606-12.159,28.539
			c-3.234,9.934-5.713,20.098-7.687,30.283c-1.743,10.416-2.479,20.098-2.982,31.521l0.252,7.687c0,2.73,0.252,5.208,0.504,7.938
			c0.252,5.208,0.987,10.416,1.491,15.624c1.743,10.416,3.97,20.602,6.951,30.514c3.234,9.934,7.203,19.594,11.655,29.022
			c4.726,9.43,9.934,18.354,15.877,26.797c23.814,34.252,57.562,60.545,94.292,75.938c9.177,3.718,18.606,7.203,28.035,9.682
			c4.726,1.491,9.43,2.479,14.154,3.465c2.479,0.504,4.726,0.987,7.204,1.239c2.478,0.504,4.725,0.987,7.203,1.239
			c4.725,0.734,9.681,1.239,14.153,1.743c2.479,0.252,4.726,0.504,7.203,0.504c2.479,0,4.957,0.252,7.204,0.252h3.465h3.465
			c2.226,0,4.726,0,6.951,0c4.726-0.252,9.177-0.504,13.902-0.735c18.354-1.743,35.974-5.46,52.606-10.668
			c16.632-5.46,32.005-12.411,45.907-20.854c13.902-8.19,26.544-17.619,37.465-27.553c10.92-10.164,20.35-20.602,28.287-31.521
			c15.625-21.589,25.054-43.178,30.514-61.532c5.713-18.354,7.203-33.495,7.938-43.681c0.504-4.956,0.504-9.177,0.504-11.655
			C552.607,1148.126,552.607,1146.635,552.607,1146.635L552.607,1146.635z"/>
	</g>
	<g>
		<path fill="#B17F4A" d="M538.704,1156.063c0,0,0,1.239,0,3.466c0,2.226,0,5.712-0.504,10.164
			c-0.734,8.925-2.478,22.092-7.434,38.221c-0.987,3.969-2.73,8.19-4.222,12.663c-1.743,4.222-3.465,8.925-5.964,13.398
			c-4.474,9.177-9.682,18.858-16.633,28.288c-13.397,19.11-32.509,38.451-57.31,54.097c-12.412,7.687-26.062,14.638-40.951,20.098
			c-14.89,5.46-30.766,9.177-47.65,11.172c-4.221,0.505-8.442,0.735-12.663,1.239c-2.227,0-4.222,0.252-6.447,0.252l-3.234,0.252
			h-3.233c-1.995,0-4.222,0-6.447,0c-1.995,0-4.474-0.252-6.699-0.252c-4.474-0.252-8.926-0.734-13.146-1.239
			c-17.619-1.994-35.491-6.446-52.858-12.894c-34.482-13.146-67.243-36.227-91.058-67.496c-5.965-7.938-11.425-16.128-16.129-24.822
			c-4.725-8.694-8.925-17.871-12.159-27.301s-5.964-19.11-7.687-29.022c-0.734-4.956-1.49-9.934-1.994-14.89
			c-0.253-2.478-0.505-4.956-0.505-7.434l-0.252-7.938c0-9.178,0.735-20.098,1.995-30.031c1.491-9.933,3.97-19.845,6.951-29.526
			c3.234-9.682,7.203-18.858,11.655-27.783c4.474-8.926,9.934-17.368,15.625-25.558c23.331-32.509,56.071-56.828,91.562-70.961
			c35.491-13.902,72.956-17.872,107.438-13.902c17.115,2.226,33.748,6.195,48.89,11.907c15.141,5.712,29.022,13.146,41.686,21.336
			c25.054,16.633,43.912,36.73,57.079,56.828c6.699,9.933,11.907,19.845,16.129,29.274c2.226,4.725,3.969,9.177,5.46,13.65
			c1.491,4.473,2.982,8.694,3.969,12.895c4.474,16.38,5.965,29.526,6.447,38.704c0.504,4.473,0.252,7.938,0.252,10.164
			C538.704,1154.824,538.704,1155.812,538.704,1156.063L538.704,1156.063z M536.227,1155.812c0,0,0-1.239-0.252-3.465
			c-0.252-2.227-0.252-5.712-0.735-10.164c-0.735-8.926-2.729-21.841-7.938-37.465c-5.208-15.625-14.385-33.748-28.539-51.619
			c-14.386-17.62-34-34.483-58.318-47.398c-12.159-6.447-25.306-11.907-39.46-16.129c-14.154-3.969-29.022-6.698-44.668-7.938
			c-3.97-0.252-7.435-0.504-11.425-0.735c-1.995,0-4.221,0-6.195,0h-3.233h-2.73c-3.969,0-7.938,0.252-11.907,0.735
			c-3.969,0.252-7.938,0.734-12.159,1.239c-16.128,2.226-32.257,6.446-47.881,12.663c-31.27,12.159-60.797,33.013-82.385,60.796
			c-5.461,6.951-10.417,14.386-14.638,22.093c-4.221,7.687-7.938,15.876-10.92,24.318c-2.982,8.442-5.209,17.115-6.951,26.062
			c-1.491,9.178-2.227,17.116-2.479,27.049v6.447c0,2.227,0.252,4.474,0.252,6.699c0.252,4.474,0.987,8.925,1.491,13.398
			c1.491,8.925,3.465,17.619,6.195,26.293c2.729,8.693,6.447,16.863,10.416,24.822c3.969,7.938,8.925,15.624,14.154,22.827
			c21.085,29.023,50.611,51.367,82.637,64.262c16.129,6.447,32.509,10.92,49.142,13.398c4.221,0.504,8.189,1.239,12.411,1.491
			c1.995,0.252,3.969,0.504,6.195,0.504c2.226,0,4.221,0.252,6.447,0.252c3.969,0.252,8.189,0,12.159,0
			c3.969-0.252,7.938-0.252,12.159-0.735c15.876-1.491,31.27-4.473,45.655-8.694c14.385-4.473,27.783-10.416,40.194-17.115
			c24.571-13.65,44.164-31.521,58.066-49.876s22.576-36.981,27.553-52.858c4.956-15.876,6.447-29.022,7.203-37.717
			c0.504-4.473,0.252-7.938,0.504-10.164C536.227,1157.071,536.227,1155.812,536.227,1155.812L536.227,1155.812z"/>
	</g>
	<g>
		<path fill="#B17F4A" d="M521.337,1160.537c0,0,0,0.986,0,2.981s0,4.726-0.504,8.694c-0.504,7.435-2.226,18.606-6.699,32.005
			c-2.226,6.699-4.956,14.154-8.925,21.589c-3.718,7.686-8.694,15.624-14.386,23.331c-11.655,15.877-28.035,31.522-49.142,44.416
			c-20.854,12.895-46.41,22.324-74.698,25.558c-3.465,0.504-7.203,0.735-10.668,0.987c-3.718,0-7.203,0.504-10.921,0.252
			c-3.465,0-6.951,0-10.92-0.252c-3.717-0.252-7.435-0.504-11.172-0.987c-14.89-1.491-29.779-4.956-44.668-10.164
			c-29.275-10.416-57.311-28.792-78.416-54.832c-10.416-12.895-19.11-27.553-25.054-43.43c-2.982-7.938-5.208-16.128-6.951-24.57
			c-0.735-4.221-1.491-8.442-1.743-12.663c-0.252-2.227-0.504-4.222-0.504-6.447l-0.252-6.699c0-7.687,0.504-17.115,1.743-25.306
			c1.491-8.442,3.465-16.863,6.195-25.054c5.712-16.128,13.902-31.521,24.066-44.92c20.854-27.049,49.141-46.894,79.15-58.318
			c30.031-11.172,61.783-14.386,90.827-10.92c14.386,1.743,28.288,5.208,41.182,9.933c12.895,4.726,24.571,10.669,35.239,17.368
			c21.337,13.65,37.465,30.514,48.89,46.894c5.712,8.19,10.416,16.381,13.902,24.318c3.717,7.687,6.194,15.394,8.441,22.093
			c3.97,13.65,5.209,24.823,5.713,32.257c0.252,3.717,0.252,6.699,0.252,8.694C521.337,1159.55,521.337,1160.537,521.337,1160.537
			L521.337,1160.537z M518.86,1160.537c0,0,0-0.987-0.252-2.982c0-1.995-0.253-4.725-0.505-8.442
			c-0.734-7.434-2.478-18.123-7.203-31.27c-4.725-12.895-12.894-27.783-25.306-42.19c-12.411-14.154-29.526-27.552-50.128-37.717
			c-20.602-10.164-44.668-16.632-70.478-18.354c-3.234-0.252-6.195-0.252-9.43-0.504c-1.742,0-3.465,0-5.208,0h-2.729h-2.227
			c-3.233,0-6.699,0.252-9.933,0.504c-3.234,0.253-6.699,0.735-9.934,0.987c-13.398,1.743-26.797,4.956-39.942,9.934
			c-26.062,9.681-50.863,25.81-69.722,48.385c-9.43,11.173-16.863,24.066-22.093,37.717c-2.479,6.951-4.726,13.902-6.195,21.337
			c-1.239,7.435-1.995,13.902-2.226,22.323v5.208c0,1.995,0.252,3.718,0.252,5.461c0.252,3.717,0.734,7.434,1.238,11.172
			c1.239,7.435,2.982,14.638,5.461,21.589c4.956,14.154,12.159,27.301,21.084,39.207c18.124,23.815,43.177,41.435,69.974,51.872
			c13.398,5.208,27.301,8.925,41.182,10.668c3.466,0.504,6.951,0.987,10.164,1.239c3.234,0.252,6.951,0.504,10.417,0.504
			c3.233,0.252,6.699,0,10.164,0s6.699-0.252,10.164-0.504c13.398-0.987,26.062-3.234,38.221-6.699s23.584-7.938,34-13.398
			c20.854-10.92,37.717-25.306,49.876-40.195c5.965-7.434,10.921-15.141,15.142-22.323c3.969-7.435,6.951-14.638,9.178-21.085
			c4.473-13.146,5.712-24.066,6.194-31.521c0.252-3.717,0.252-6.447,0.504-8.442C518.86,1161.523,519.112,1160.537,518.86,1160.537
			L518.86,1160.537z"/>
	</g>
	<g>
		<path fill="#B17F4A" d="M510.417,1168.979c0,0,0,0.734,0,2.478c0,1.491,0,3.969-0.504,7.203
			c-0.735,6.195-2.227,15.394-6.195,26.293c-2.227,5.46-4.956,11.424-8.442,17.367c-3.465,6.195-7.938,12.411-13.398,18.606
			c-10.668,12.411-25.054,24.57-43.177,34c-17.872,9.429-39.46,16.632-62.771,19.11c-5.964,0.504-11.655,0.987-17.872,0.987
			c-2.981,0-5.712,0-8.925-0.252c-1.491,0-3.234-0.253-4.725-0.253c-1.491-0.252-2.982-0.252-4.726-0.504
			c-12.411-0.986-24.822-3.465-37.213-7.203c-24.822-7.434-49.141-20.602-68.482-40.95c-9.429-10.165-17.871-21.841-23.584-34.987
			c-5.964-13.146-8.925-27.553-9.177-42.19c0-6.698,0.504-14.889,1.995-21.84c1.239-7.203,3.465-14.154,6.195-21.085
			c5.46-13.65,13.398-25.81,22.575-36.478c18.858-21.337,43.682-35.974,68.986-44.416c12.663-3.969,25.558-6.699,38.452-7.938
			c1.491-0.252,3.234-0.252,4.726-0.504c1.49,0,3.233-0.252,4.725-0.252c3.234-0.252,6.195-0.252,9.43-0.252h2.478h2.227
			c1.49,0,2.981,0.252,4.221,0.252c2.982,0.252,6.195,0.504,9.429,0.735c24.067,2.729,46.159,10.416,64.262,20.854
			c18.354,10.416,32.761,23.583,43.178,36.478c10.668,13.146,16.863,26.293,20.854,37.465c3.717,11.172,4.956,20.602,5.46,26.797
			c0.252,3.234,0.252,5.46,0.252,7.203C510.417,1167.971,510.417,1168.979,510.417,1168.979L510.417,1168.979z M507.939,1168.979
			c0,0,0-0.735-0.252-2.479c0-1.491-0.252-3.969-0.504-6.951c-0.735-5.964-2.478-14.89-6.951-25.306
			c-2.226-5.208-5.208-10.668-9.177-16.381c-3.97-5.712-8.694-11.172-14.386-16.632c-11.172-10.668-26.293-20.35-43.681-27.301
			c-17.62-6.951-37.465-11.172-58.802-12.411c-21.337-0.987-43.912,1.239-65.753,8.19c-21.84,6.951-43.177,18.606-59.809,35.49
			c-8.19,8.442-15.394,18.354-20.098,29.023c-2.479,5.46-4.474,10.92-5.712,16.863c-1.239,5.964-1.995,11.172-2.227,17.619
			c0,11.907,1.995,23.814,6.699,34.987c4.474,11.172,11.173,21.336,19.11,30.514c16.129,18.123,37.717,31.27,60.293,38.955
			c11.172,3.97,22.827,6.447,34.251,7.938l4.222,0.504l4.221,0.252c2.73,0.252,5.712,0.252,8.694,0.504c2.73,0.252,5.712,0,8.442,0
			c2.729,0,5.46-0.252,8.442-0.252c22.092-1.238,42.673-6.194,60.544-14.154c17.871-7.686,32.761-18.354,43.682-29.778
			c5.46-5.712,10.164-11.655,13.902-17.619c3.717-5.965,6.446-11.655,8.693-16.863c4.222-10.669,5.461-19.846,5.965-25.811
			c0.252-2.981,0.252-5.46,0.252-6.951C507.939,1169.714,507.939,1168.727,507.939,1168.979L507.939,1168.979z"/>
	</g>
	<g>
		<path fill="#B17F4A" d="M498.51,1175.678c0,0,0,0.735,0,1.995c0,0.735,0,1.491,0,2.479s-0.252,1.995-0.504,3.234
			c-0.735,4.956-2.227,12.159-6.195,20.602c-1.995,4.221-4.474,8.693-7.938,13.146c-3.234,4.474-7.203,9.178-11.907,13.65
			c-9.43,8.926-21.589,17.62-36.226,24.319c-14.638,6.698-31.753,11.655-50.381,13.397c-4.725,0.505-9.429,0.735-14.154,0.735
			c-4.473,0-9.681,0-14.385-0.252c-9.934-0.735-19.846-1.995-29.779-4.473c-19.845-4.956-40.194-13.65-57.31-28.288
			c-8.442-7.203-16.129-16.128-21.841-26.545c-2.73-5.208-4.956-10.668-6.699-16.632c-0.504-1.491-0.735-2.982-0.987-4.474
			s-0.734-2.981-0.734-4.473c-0.252-1.491-0.504-2.982-0.504-4.474l-0.252-2.226v-1.239v-0.504v-0.252c0-0.252,0,0.252,0-0.735
			v-3.969c0-1.239,0.252-3.234,0.252-4.726c0-1.742,0.504-2.981,0.734-4.725c0.252-1.491,0.504-2.982,0.987-4.474
			c1.491-5.964,3.465-11.655,5.964-17.115c5.46-10.668,12.663-20.098,21.085-28.035c16.863-15.877,37.465-25.81,57.813-31.521
			c10.165-2.73,20.602-4.474,30.767-5.209c4.956-0.504,10.164-0.504,15.141-0.504h1.995h1.743l3.465,0.252
			c2.227,0,4.956,0.504,7.435,0.504c19.362,1.995,36.981,7.687,51.871,15.142s27.301,17.115,36.479,26.797
			c4.725,4.956,8.441,9.934,11.654,14.638c3.234,4.725,5.461,9.429,7.435,13.902c3.717,8.693,4.726,16.128,5.208,21.084
			c0,1.239,0.252,2.479,0.252,3.234c0,0.986,0,1.743,0,2.478C498.51,1174.922,498.51,1175.678,498.51,1175.678L498.51,1175.678z
			 M496.031,1175.678c0,0,0-0.734,0-1.994c0-0.735,0-1.491-0.252-2.227c0-0.987-0.252-1.995-0.504-3.234
			c-0.252-2.478-0.987-5.208-1.995-8.693c-0.504-1.743-1.239-3.466-1.995-5.209c-0.734-1.743-1.743-3.717-2.729-5.712
			c-4.222-7.938-11.173-16.38-21.085-23.814c-9.934-7.435-22.323-13.65-36.729-17.619c-14.154-4.222-30.283-6.699-46.895-7.203
			c-16.863-0.504-34.734,0.986-52.103,5.712c-17.367,4.473-34.734,12.159-49.141,23.814c-7.203,5.712-13.146,12.663-17.619,20.602
			c-2.227,3.969-3.97,7.938-5.208,12.159c-0.252,0.987-0.504,2.227-0.735,3.234c-0.252,0.986-0.504,2.226-0.504,3.233
			c0,1.009-0.252,1.743-0.504,3.234l-0.252,3.969c0-0.734,0,0,0-0.252v0.252v0.505v0.734v1.743c0,0.987,0.252,2.227,0.252,3.234
			c0,0.986,0.252,2.226,0.504,3.233c0.252,0.987,0.504,2.227,0.735,3.234c0.986,4.474,2.478,8.694,4.473,12.663
			c4.221,8.19,9.934,15.625,16.863,22.093c13.902,12.895,31.521,21.841,49.624,27.049c8.926,2.729,18.123,4.473,27.301,5.46
			c4.473,0.504,8.694,0.735,13.65,0.987c4.473,0.252,8.925,0.252,13.146,0c17.367-0.735,34-3.718,48.385-8.694
			c14.638-4.956,27.049-12.159,36.729-20.098c4.726-3.969,8.926-8.442,12.16-12.663c3.233-4.222,5.964-8.694,7.938-12.663
			c0.987-1.995,1.743-3.97,2.479-5.965c0.504-1.995,1.239-3.717,1.743-5.46c0.986-3.465,1.491-6.447,1.491-8.694
			c0-1.238,0.252-2.226,0.252-3.233c0-0.987,0-1.743,0-2.479C496.031,1176.413,496.031,1175.678,496.031,1175.678L496.031,1175.678z
			"/>
	</g>
	<g>
		<path fill="#B17F4A" d="M482.633,1183.616c0,0,0,0.504,0,1.491s-0.252,2.227-0.504,4.221c-0.734,3.718-2.478,8.926-6.195,14.386
			c-3.717,5.712-9.681,11.655-17.367,17.115s-17.367,10.416-28.287,14.638c-10.921,3.969-23.584,6.951-36.982,8.19
			c-3.465,0.252-6.699,0.504-10.416,0.734c-3.234,0-6.951,0-10.416,0c-7.203-0.252-14.386-0.986-21.841-1.995
			c-14.638-2.478-30.031-6.699-44.164-15.141c-7.203-4.222-13.902-9.682-19.594-16.633c-2.729-3.465-5.208-7.687-7.203-12.159
			c-0.504-1.239-0.734-2.227-1.238-3.465c-0.252-1.239-0.735-2.479-0.987-3.718c-0.252-1.238-0.504-2.478-0.504-3.717l-0.252-1.995
			v-0.987v-0.504v-0.252c0-0.252,0,0.252,0-0.734v-2.982c0-1.491,0.252-2.73,0.504-4.221c0.252-1.239,0.504-2.479,0.735-3.718
			c0.23-1.238,0.734-2.478,0.986-3.465c1.743-4.725,3.97-8.925,6.699-12.663c5.46-7.687,12.159-13.398,19.11-18.354
			c14.154-9.682,29.526-15.142,44.668-18.124c15.142-2.981,30.031-3.465,43.912-2.226c14.154,1.491,26.797,4.956,38.221,9.682
			c22.576,9.429,38.221,23.583,45.403,35.722c3.717,5.964,4.956,11.424,5.46,15.142c0.252,1.742,0.252,3.233,0.252,4.221
			C482.633,1183.112,482.633,1183.616,482.633,1183.616L482.633,1183.616z M480.156,1183.616c0,0,0-0.504,0-1.239
			c0-0.986-0.252-2.226-0.504-3.969c-0.252-0.735-0.504-1.743-0.735-2.73c-0.504-0.986-0.735-1.994-1.239-3.233
			c-0.986-2.227-2.478-4.726-4.473-7.203c-3.97-4.956-10.164-9.934-18.124-13.65c-7.938-3.717-17.619-6.447-28.287-8.19
			c-10.669-1.743-22.324-2.226-34.483-2.226s-25.054,0.986-37.969,3.465c-12.895,2.478-25.81,6.195-37.213,12.411
			c-5.712,3.234-10.668,6.951-14.637,11.424c-1.995,2.227-3.466,4.726-4.474,7.203l-0.734,1.743l-0.504,1.995
			c0,0.504-0.252,0.987-0.252,1.491l-0.253,2.73c0-0.735,0-0.252,0-0.252l0,0v0.252v0.504v0.987l0.253,1.994l0.504,1.995
			l0.504,1.995c0.734,2.479,2.226,5.208,3.969,7.687c3.465,4.956,8.442,9.429,14.154,13.146
			c11.172,7.434,24.57,12.411,37.717,15.624c6.699,1.491,13.398,2.479,19.846,3.234c3.234,0.252,6.447,0.504,9.933,0.734
			c3.234,0.253,6.447,0.253,9.682,0.253c12.663,0,24.57-1.239,35.491-3.718c10.92-2.226,20.602-5.964,28.539-10.416
			c7.938-4.452,13.902-9.934,17.62-15.394c3.717-5.208,5.208-10.416,5.712-13.65c0.252-1.743,0.252-2.981,0.252-3.969
			C480.156,1183.868,480.156,1183.364,480.156,1183.616L480.156,1183.616z"/>
	</g>
	<g>
		<path fill="#B17F4A" d="M468.731,1189.076c0,0,0,0.252,0,0.987c0,0.504-0.252,1.743-0.986,2.982
			c-0.504,1.238-1.491,2.478-2.73,3.717s-2.73,2.478-4.726,3.969c-3.717,2.479-8.693,4.956-14.385,7.203s-12.663,4.474-20.098,6.447
			c-7.435,1.995-15.876,3.465-24.57,4.474c-8.926,0.734-18.354,0.986-28.036,0.504c-9.681-0.504-20.098-1.743-30.282-4.474
			c-5.208-1.491-10.416-3.233-15.877-6.194c-2.729-1.491-5.46-3.466-8.189-6.195c-1.239-1.491-2.73-3.234-3.718-5.461
			c-0.986-2.226-1.743-4.956-1.995-7.686v-1.743c0,0,0-1.239,0.252-1.995c0.252-1.995,0.735-2.73,1.239-4.221
			c0.987-2.227,2.227-4.222,3.465-5.713c2.73-3.233,5.461-5.208,7.938-6.951c5.208-3.465,10.668-5.964,15.877-7.938
			c10.416-3.97,20.601-6.195,30.766-7.435c9.933-0.987,19.845-0.987,28.791-0.252c9.178,0.987,17.62,2.982,25.306,5.712
			c7.687,2.73,14.386,5.712,20.098,8.694s10.668,5.964,14.386,8.925c1.743,1.491,3.465,2.982,4.473,4.474
			c1.239,1.491,1.995,2.982,2.479,4.221c0.504,1.239,0.734,2.227,0.734,2.982C468.731,1188.824,468.731,1189.076,468.731,1189.076
			L468.731,1189.076z M466.253,1189.076c0,0,0-0.252,0-0.734c0-0.504-0.252-1.239-0.735-2.227c-0.987-1.743-3.234-4.221-6.951-5.964
			c-3.717-1.995-8.694-3.234-14.638-3.969c-5.964-0.735-12.663-0.735-19.845-0.505c-7.203,0.253-15.142,0.987-23.332,1.491
			s-16.863,0.987-25.558,1.743c-8.694,0.735-17.871,1.743-26.292,3.717c-4.222,0.987-8.442,2.227-11.656,3.97
			c-1.742,0.735-2.981,1.743-3.717,2.478c-0.504,0.252-0.504,0.504-0.734,0.504c0,0,0,0.252,0-0.504c0-0.252,0-0.734,0-0.252v0.504
			v0.252l0,0c0-0.252,0,0.735,0-0.734c0-0.252-0.252-0.504-0.252-0.504s0,0.504,0.504,0.734c0.504,0.987,1.995,1.995,3.465,3.234
			c3.234,2.227,7.203,3.969,11.424,5.712c8.442,2.982,17.62,5.208,26.545,6.699s17.871,1.995,26.293,2.479
			c8.441,0.504,16.38,0.504,23.814,0.252c7.434-0.252,14.154-1.239,20.098-2.479c5.964-1.491,10.92-3.465,14.385-5.712
			c3.718-2.227,5.712-4.956,6.447-6.951c0.504-0.987,0.504-1.491,0.504-2.227C466.253,1189.328,466.253,1189.076,466.253,1189.076
			L466.253,1189.076z"/>
	</g>
</g>
<g id="Laag_1_1_">
	<g>
		<path d="M38.956,1384.36v-351.611H236.97v39.712H87.341v120.354h142.93v39.712H87.341v152.106H38.956V1384.36z"/>
	</g>
	<g>
		<path d="M164.266,1325.559v58.802H153.85v-8.694c-2.227,2.982-4.726,5.208-7.938,6.951c-3.234,1.743-6.699,2.73-10.92,2.73
			c-3.718,0-6.699-0.735-9.43-2.227c-2.478-1.491-4.725-3.717-6.195-6.195c-1.742-2.729-2.729-5.712-3.465-9.177
			c-0.734-3.466-0.987-7.203-0.987-11.173v-31.018h10.921v30.514c0,2.982,0.252,5.713,0.504,8.19
			c0.504,2.479,0.987,4.726,1.995,6.447s2.226,3.234,3.969,4.221c1.743,0.987,3.718,1.491,6.195,1.491
			c3.234,0,6.195-0.734,8.694-2.478c2.478-1.743,4.473-3.466,5.964-5.461v-43.177h11.173v0.252H164.266z"/>
		<path d="M182.642,1384.36v-58.802h10.416v8.694c2.226-3.234,4.956-5.46,7.938-7.203c3.234-1.743,6.699-2.479,10.669-2.479
			c3.717,0,6.699,0.735,9.429,2.227c2.73,1.491,4.726,3.717,6.447,6.195c1.743,2.729,2.982,5.712,3.717,9.177
			c0.735,3.465,1.239,7.203,1.239,11.173v31.018h-10.92v-30.514c0-2.982-0.252-5.713-0.735-8.19
			c-0.504-2.479-1.239-4.726-2.226-6.447c-0.987-1.743-2.479-3.234-4.222-4.221c-1.743-0.987-3.717-1.491-6.195-1.491
			c-3.233,0-6.194,0.734-8.693,2.478c-2.479,1.743-4.474,3.466-5.965,5.461v43.177h-10.92v-0.252H182.642z"/>
		<path d="M298.753,1384.36h-10.416v-8.19c-2.227,2.73-4.956,4.726-7.938,6.699c-3.234,1.743-6.951,2.73-11.172,2.73
			c-3.466,0-6.447-0.735-9.43-2.227c-2.73-1.491-5.208-3.465-7.203-6.195c-1.995-2.729-3.717-5.964-4.725-9.681
			c-0.987-3.718-1.743-7.687-1.743-12.159c0-4.957,0.734-9.43,2.226-13.146c1.491-3.97,3.717-7.203,6.195-9.934
			c2.478-2.73,5.964-4.725,9.429-6.195c3.718-1.491,7.687-1.995,11.908-1.995c2.478,0,4.473,0.252,6.194,0.504
			c1.723,0.252,3.718,0.735,5.208,1.239v-28.035h10.921v86.605h0.546V1384.36z M272.208,1376.674c3.465,0,6.699-0.734,9.178-2.478
			c2.729-1.743,4.725-3.466,6.447-5.461v-33.747c-1.491-0.504-2.982-0.987-4.726-1.239s-3.717-0.252-5.712-0.252
			c-6.195,0-10.92,1.995-14.638,5.712c-3.717,3.717-5.46,9.43-5.46,16.381c0,6.447,1.239,11.655,3.717,15.393
			C263.283,1374.679,267,1376.674,272.208,1376.674z"/>
		<path d="M339.956,1324.299c3.717,0,6.951,0.504,9.933,1.743c2.73,1.239,5.208,2.981,7.203,4.956
			c1.995,2.226,3.234,4.725,4.222,7.434c0.986,2.982,1.491,5.965,1.491,9.43s-0.505,6.699-1.239,9.934h-37.213
			c0,2.981,0.504,5.46,1.239,7.686c0.734,2.227,1.742,4.222,3.465,5.965c1.491,1.742,3.465,2.981,5.964,3.969
			c2.479,0.987,5.208,1.239,8.694,1.239c3.234,0,6.195-0.252,8.925-0.987c2.73-0.735,5.461-1.491,7.687-2.479l1.491,8.19
			c-2.73,1.239-5.712,2.227-9.178,2.982c-3.465,0.734-6.951,0.986-10.668,0.986c-4.956,0-9.177-0.734-12.895-2.478
			c-3.717-1.491-6.699-3.717-8.925-6.447c-2.479-2.73-4.222-5.964-5.208-9.682c-1.239-3.717-1.743-7.686-1.743-11.907
			c0-4.221,0.504-8.189,1.743-11.907c1.239-3.717,2.981-6.951,5.208-9.933c2.226-2.73,5.208-4.956,8.442-6.699
			C332.018,1325.055,335.735,1324.299,339.956,1324.299z M339.451,1332.489c-2.478,0-4.473,0.504-6.194,1.238
			c-1.743,0.987-3.466,2.227-4.726,3.718c-1.239,1.49-2.226,3.465-2.982,5.46c-0.734,1.995-1.238,4.221-1.238,6.447h27.783
			c0.252-2.227,0.252-4.474,0-6.447c-0.252-1.995-0.986-3.97-1.995-5.46c-0.986-1.491-2.226-2.73-3.969-3.718
			C343.925,1332.993,341.93,1332.489,339.451,1332.489z"/>
		<path d="M409.678,1334.484h-2.73c-4.221,0-8.19,0.734-11.172,2.478c-3.234,1.743-5.713,4.222-7.938,7.938v39.46h-10.92v-58.802
			h10.416v11.173c1.743-3.97,3.969-6.952,6.699-8.926c2.729-1.995,6.447-2.981,11.172-2.981c1.743,0,3.234,0.252,4.474,0.504
			V1334.484z"/>
		<path d="M419.359,1308.17c0-1.994,0.735-3.465,1.995-4.956s2.982-1.995,5.208-1.995c2.227,0,3.718,0.735,4.956,1.995
			c1.239,1.491,1.995,2.982,1.995,4.956c0,1.995-0.734,3.466-1.995,4.957c-1.26,1.49-2.981,1.994-4.956,1.994
			c-2.226,0-3.717-0.734-5.208-1.994C419.863,1311.656,419.359,1309.913,419.359,1308.17z M420.85,1384.36v-58.802h10.92v58.802
			H420.85z"/>
		<path d="M450.124,1384.36v-58.802h10.417v8.694c2.226-3.234,4.956-5.46,7.938-7.203c3.234-1.743,6.699-2.479,10.669-2.479
			c3.717,0,6.698,0.735,9.429,2.227s4.726,3.717,6.447,6.195c1.743,2.729,2.982,5.712,3.717,9.177
			c0.735,3.465,1.239,7.203,1.239,11.173v31.018h-10.92v-30.514c0-2.982-0.252-5.713-0.735-8.19
			c-0.504-2.479-1.239-4.726-2.227-6.447c-0.986-1.722-2.478-3.234-4.221-4.221c-1.743-0.987-3.717-1.491-6.195-1.491
			c-3.234,0-6.195,0.734-8.694,2.478c-2.478,1.743-4.473,3.466-5.964,5.461v43.177h-10.92v-0.252H450.124z"/>
		<path d="M538.704,1364.515c-1.743,0-3.233,0-4.725-0.252c-1.239,1.743-1.743,3.234-1.743,4.956c0,1.491,0.504,2.479,1.491,3.234
			c0.986,0.734,2.729,1.238,4.956,1.238l12.159,0.987c2.729,0.252,5.46,0.735,7.687,1.239c2.226,0.504,4.473,1.491,5.964,2.73
			c1.743,1.238,2.981,2.729,3.969,4.473s1.491,3.969,1.491,6.447c0,3.234-0.987,6.195-2.73,8.694
			c-1.742,2.729-4.221,4.956-7.434,6.699c-2.982,1.743-6.699,3.233-10.416,4.221c-3.718,0.987-8.19,1.491-12.412,1.491
			c-3.465,0-6.951-0.252-10.164-0.987c-3.233-0.504-5.712-1.491-8.189-2.729c-2.227-1.239-4.222-2.982-5.461-4.726
			c-1.238-1.995-1.995-4.221-1.995-6.699c0-2.226,0.504-4.221,1.491-5.712c0.987-1.743,2.227-2.982,3.97-4.221
			c1.49-1.239,3.465-2.227,5.208-2.982c1.995-0.735,3.969-1.491,5.712-1.995c-1.743-0.735-2.982-1.995-4.222-3.234
			c-0.986-1.491-1.742-3.233-1.742-5.208c0-2.478,0.734-4.221,1.995-5.712c1.26-1.491,2.729-2.479,4.473-3.465
			c-3.969-1.491-7.203-3.718-9.682-6.951c-2.478-3.234-3.717-6.951-3.717-11.425c0-2.981,0.504-5.712,1.743-8.189
			c1.239-2.479,2.982-4.726,4.956-6.447c1.995-1.743,4.474-3.234,7.435-4.222s5.964-1.491,9.177-1.491c1.491,0,2.982,0,4.222,0.252
			c1.238,0.252,2.729,0.504,3.969,0.987h21.841v8.19h-10.165c1.239,1.743,1.995,3.465,2.73,5.208
			c0.504,1.743,0.987,3.717,0.987,5.712c0,2.982-0.504,5.712-1.743,8.19c-1.239,2.478-2.73,4.473-4.956,6.195
			c-2.227,1.743-4.726,3.233-7.435,4.221C544.921,1364.011,541.939,1364.515,538.704,1364.515z M534.252,1382.365
			c-1.49,0.734-2.729,1.491-4.221,2.226c-1.491,0.735-2.73,1.743-3.969,2.479c-1.239,0.987-2.227,1.995-2.982,3.234
			c-0.756,1.238-1.239,2.478-1.239,4.221c0,3.234,1.491,5.46,4.222,6.699c2.729,1.491,6.699,1.995,11.424,1.995
			c2.479,0,5.208-0.252,7.687-0.735c2.729-0.504,4.956-1.239,6.951-2.226c1.995-0.987,3.717-2.227,5.208-3.97
			c1.239-1.491,1.995-3.465,1.995-5.46c0-1.491-0.252-2.729-0.987-3.465c-0.734-0.987-1.743-1.743-2.982-2.227
			c-1.238-0.504-2.729-0.986-4.221-1.238s-3.234-0.504-4.956-0.504L534.252,1382.365z M538.704,1356.808
			c3.718,0,6.951-0.987,9.682-3.234c2.729-2.226,3.969-5.208,3.969-8.925s-1.239-6.951-3.969-8.926
			c-2.479-2.226-5.712-3.233-9.682-3.233c-3.969,0-7.203,0.986-9.681,3.233c-2.479,2.247-3.97,5.209-3.97,9.178
			s1.239,6.951,3.97,9.177C531.523,1355.82,534.736,1356.808,538.704,1356.808z"/>
	</g>
</g>
</svg>
